HIERARCHY
ROOT Reference
{
  OFFSET 0 0 0
  CHANNELS 6 Xposition Yposition Zposition Zrotation Xrotation Yrotation
  JOINT Hips
  {
    OFFSET 251.394 724.17 483.536
    CHANNELS 3 Zrotation Xrotation Yrotation
    JOINT RightUpLeg
    {
      OFFSET -0.450515 -23.4426 -1.37224
      CHANNELS 3 Zrotation Xrotation Yrotation
      JOINT RightLeg
      {
        OFFSET 112.821 0.0872427 -0.321027
        CHANNELS 3 Zrotation Xrotation Yrotation
        JOINT RightFoot
        {
          OFFSET 105.718 0.000193788 0.0213165
          CHANNELS 3 Zrotation Xrotation Yrotation
          JOINT RightToeBase
          {
            OFFSET 37.638 -0.000116272 0.00224792
            CHANNELS 3 Zrotation Xrotation Yrotation
            JOINT RightToeEnd
            {
              OFFSET 21.2112 0.114605 -0.000138184
              CHANNELS 3 Zrotation Xrotation Yrotation
              End Site
              {
                OFFSET 0 0 0
              }
            }
          }
        }
      }
    }
    JOINT LeftUpLeg
    {
      OFFSET -0.449508 23.4315 -1.37054
      CHANNELS 3 Zrotation Xrotation Yrotation
      JOINT LeftLeg
      {
        OFFSET 112.821 -0.0485242 -0.372458
        CHANNELS 3 Zrotation Xrotation Yrotation
        JOINT LeftFoot
        {
          OFFSET 105.716 0.00496094 -0.0229443
          CHANNELS 3 Zrotation Xrotation Yrotation
          JOINT LeftToeBase
          {
            OFFSET 37.639 0 0.00158905
            CHANNELS 3 Zrotation Xrotation Yrotation
            JOINT LeftToeEnd
            {
              OFFSET 21.2113 -0.125031 -0.00017438
              CHANNELS 3 Zrotation Xrotation Yrotation
              End Site
              {
                OFFSET 0 0 0
              }
            }
          }
        }
      }
    }
    JOINT Spine
    {
      OFFSET -5.01225 0.000463591 -9.60395
      CHANNELS 3 Zrotation Xrotation Yrotation
      JOINT Spine1
      {
        OFFSET 26.0222 -0.000271301 -0.000155029
        CHANNELS 3 Zrotation Xrotation Yrotation
        JOINT Spine2
        {
          OFFSET 27.173 -0.000155029 -0.000310058
          CHANNELS 3 Zrotation Xrotation Yrotation
          JOINT Spine3
          {
            OFFSET 36.3953 -0.000232544 7.75146e-005
            CHANNELS 3 Zrotation Xrotation Yrotation
            JOINT Neck
            {
              OFFSET 36.4331 0 -3.00261
              CHANNELS 3 Zrotation Xrotation Yrotation
              JOINT Head
              {
                OFFSET 23.0407 -0.000232544 -0.000310058
                CHANNELS 3 Zrotation Xrotation Yrotation
                End Site
                {
                  OFFSET 0 0 0
                }
              }
            }
            JOINT LeftShoulder
            {
              OFFSET 20.1317 6.74168 -12.6061
              CHANNELS 3 Zrotation Xrotation Yrotation
              JOINT LeftArm
              {
                OFFSET 34.2172 -5.81359e-005 7.75146e-005
                CHANNELS 3 Zrotation Xrotation Yrotation
                JOINT LeftForeArm
                {
                  OFFSET 65.4129 -0.0821605 0.0585235
                  CHANNELS 3 Zrotation Xrotation Yrotation
                  JOINT LeftHand
                  {
                    OFFSET 67.3883 0.0359667 0.0112396
                    CHANNELS 3 Zrotation Xrotation Yrotation
                    JOINT LeftHandThumb1
                    {
                      OFFSET 8.78386 2.85353 -6.05362
                      CHANNELS 3 Zrotation Xrotation Yrotation
                      JOINT LeftHandThumb2
                      {
                        OFFSET 8.25498 -0.000116272 -0.000174407
                        CHANNELS 3 Zrotation Xrotation Yrotation
                        JOINT LeftHandThumb3
                        {
                          OFFSET 7.24822 0.000310058 5.81358e-005
                          CHANNELS 3 Zrotation Xrotation Yrotation
                          JOINT LeftHandThumb4
                          {
                            OFFSET 7.0004 -3.87568e-005 -0.000310057
                            CHANNELS 3 Zrotation Xrotation Yrotation
                            End Site
                            {
                              OFFSET 0 0 0
                            }
                          }
                        }
                      }
                    }
                    JOINT LeftHandIndex1
                    {
                      OFFSET 24.0991 -1.01537 -5.40558
                      CHANNELS 3 Zrotation Xrotation Yrotation
                      JOINT LeftHandIndex2
                      {
                        OFFSET 7.26759 -0.000290679 -0.000465086
                        CHANNELS 3 Zrotation Xrotation Yrotation
                        JOINT LeftHandIndex3
                        {
                          OFFSET 7.13628 -1.93787e-005 0.000232543
                          CHANNELS 3 Zrotation Xrotation Yrotation
                          JOINT LeftHandIndex4
                          {
                            OFFSET 5.46699 9.68932e-005 -0.000387571
                            CHANNELS 3 Zrotation Xrotation Yrotation
                            End Site
                            {
                              OFFSET 0 0 0
                            }
                          }
                        }
                      }
                    }
                    JOINT LeftHandMiddle1
                    {
                      OFFSET 24.4604 -2.52837 0.918567
                      CHANNELS 3 Zrotation Xrotation Yrotation
                      JOINT LeftHandMiddle2
                      {
                        OFFSET 7.41627 -5.81359e-005 0.000116271
                        CHANNELS 3 Zrotation Xrotation Yrotation
                        JOINT LeftHandMiddle3
                        {
                          OFFSET 8.76829 3.87573e-005 -7.75142e-005
                          CHANNELS 3 Zrotation Xrotation Yrotation
                          JOINT LeftHandMiddle4
                          {
                            OFFSET 6.07588 -0.00013565 -5.81356e-005
                            CHANNELS 3 Zrotation Xrotation Yrotation
                            End Site
                            {
                              OFFSET 0 0 0
                            }
                          }
                        }
                      }
                    }
                    JOINT LeftHandRing1
                    {
                      OFFSET 22.465 -1.97467 6.3466
                      CHANNELS 3 Zrotation Xrotation Yrotation
                      JOINT LeftHandRing2
                      {
                        OFFSET 7.36666 -0.000232544 0.000387571
                        CHANNELS 3 Zrotation Xrotation Yrotation
                        JOINT LeftHandRing3
                        {
                          OFFSET 8.07624 -0.000465087 -0.000203475
                          CHANNELS 3 Zrotation Xrotation Yrotation
                          JOINT LeftHandRing4
                          {
                            OFFSET 6.04433 0.00013565 3.87571e-005
                            CHANNELS 3 Zrotation Xrotation Yrotation
                            End Site
                            {
                              OFFSET 0 0 0
                            }
                          }
                        }
                      }
                    }
                    JOINT LeftHandPinky1
                    {
                      OFFSET 19.5278 0.352933 10.4295
                      CHANNELS 3 Zrotation Xrotation Yrotation
                      JOINT LeftHandPinky2
                      {
                        OFFSET 6.16525 5.8136e-005 -0.000251921
                        CHANNELS 3 Zrotation Xrotation Yrotation
                        JOINT LeftHandPinky3
                        {
                          OFFSET 6.14448 -0.000329434 -0.00510625
                          CHANNELS 3 Zrotation Xrotation Yrotation
                          JOINT LeftHandPinky4
                          {
                            OFFSET 4.98555 0.000116272 0.000116271
                            CHANNELS 3 Zrotation Xrotation Yrotation
                            End Site
                            {
                              OFFSET 0 0 0
                            }
                          }
                        }
                      }
                    }
                  }
                }
              }
            }
            JOINT RightShoulder
            {
              OFFSET 20.1309 -6.74152 -12.6063
              CHANNELS 3 Zrotation Xrotation Yrotation
              JOINT RightArm
              {
                OFFSET 34.2171 7.75146e-005 7.75146e-005
                CHANNELS 3 Zrotation Xrotation Yrotation
                JOINT RightForeArm
                {
                  OFFSET 65.4492 0.242543 -0.176501
                  CHANNELS 3 Zrotation Xrotation Yrotation
                  JOINT RightHand
                  {
                    OFFSET 67.3888 -0.0867388 0.0597442
                    CHANNELS 3 Zrotation Xrotation Yrotation
                    JOINT RightHandThumb1
                    {
                      OFFSET 8.78307 -2.85357 -6.05302
                      CHANNELS 3 Zrotation Xrotation Yrotation
                      JOINT RightHandThumb2
                      {
                        OFFSET 8.25493 -7.75145e-005 0
                        CHANNELS 3 Zrotation Xrotation Yrotation
                        JOINT RightHandThumb3
                        {
                          OFFSET 7.24797 -0.000174408 0.000155029
                          CHANNELS 3 Zrotation Xrotation Yrotation
                          JOINT RightHandThumb4
                          {
                            OFFSET 7.00062 0 0
                            CHANNELS 3 Zrotation Xrotation Yrotation
                            End Site
                            {
                              OFFSET 0 0 0
                            }
                          }
                        }
                      }
                    }
                    JOINT RightHandIndex1
                    {
                      OFFSET 24.0991 1.01525 -5.40578
                      CHANNELS 3 Zrotation Xrotation Yrotation
                      JOINT RightHandIndex2
                      {
                        OFFSET 7.26773 7.75144e-005 0.000232543
                        CHANNELS 3 Zrotation Xrotation Yrotation
                        JOINT RightHandIndex3
                        {
                          OFFSET 7.13572 -0.000310058 3.87571e-005
                          CHANNELS 3 Zrotation Xrotation Yrotation
                          JOINT RightHandIndex4
                          {
                            OFFSET 5.46717 0 3.87572e-005
                            CHANNELS 3 Zrotation Xrotation Yrotation
                            End Site
                            {
                              OFFSET 0 0 0
                            }
                          }
                        }
                      }
                    }
                    JOINT RightHandMiddle1
                    {
                      OFFSET 24.4603 2.52899 0.918547
                      CHANNELS 3 Zrotation Xrotation Yrotation
                      JOINT RightHandMiddle2
                      {
                        OFFSET 7.41641 -0.000116272 -0.000116272
                        CHANNELS 3 Zrotation Xrotation Yrotation
                        JOINT RightHandMiddle3
                        {
                          OFFSET 8.76765 -3.87577e-005 0.000232543
                          CHANNELS 3 Zrotation Xrotation Yrotation
                          JOINT RightHandMiddle4
                          {
                            OFFSET 6.07609 -0.000193787 -0.000116271
                            CHANNELS 3 Zrotation Xrotation Yrotation
                            End Site
                            {
                              OFFSET 0 0 0
                            }
                          }
                        }
                      }
                    }
                    JOINT RightHandRing1
                    {
                      OFFSET 22.465 1.97571 6.34696
                      CHANNELS 3 Zrotation Xrotation Yrotation
                      JOINT RightHandRing2
                      {
                        OFFSET 7.36684 0.000193786 0.000155029
                        CHANNELS 3 Zrotation Xrotation Yrotation
                        JOINT RightHandRing3
                        {
                          OFFSET 8.07614 -0.000271301 0
                          CHANNELS 3 Zrotation Xrotation Yrotation
                          JOINT RightHandRing4
                          {
                            OFFSET 6.04468 0.000232543 0
                            CHANNELS 3 Zrotation Xrotation Yrotation
                            End Site
                            {
                              OFFSET 0 0 0
                            }
                          }
                        }
                      }
                    }
                    JOINT RightHandPinky1
                    {
                      OFFSET 19.5277 -0.352346 10.4296
                      CHANNELS 3 Zrotation Xrotation Yrotation
                      JOINT RightHandPinky2
                      {
                        OFFSET 6.16508 0 0.000232543
                        CHANNELS 3 Zrotation Xrotation Yrotation
                        JOINT RightHandPinky3
                        {
                          OFFSET 6.14396 -0.000155048 -0.0048834
                          CHANNELS 3 Zrotation Xrotation Yrotation
                          JOINT RightHandPinky4
                          {
                            OFFSET 4.98577 -7.75146e-005 -7.75143e-005
                            CHANNELS 3 Zrotation Xrotation Yrotation
                            End Site
                            {
                              OFFSET 0 0 0
                            }
                          }
                        }
                      }
                    }
                  }
                }
              }
            }
          }
        }
      }
    }
  }
}
MOTION
Frames:	4
Frame Time:	0.0333333
0 0 0 -90 -7.01671e-015 -180 146.295 2.72431 117.944 -147.153 38.6566 -32.1268 -0.625918 -0.112143 -80.9948 7.62126 -5.22881 51.8243 -2.44365 2.75942 68.3907 -2.67128e-005 -5.34096e-005 -86.4976 160.069 -10.4055 12.9486 -0.904086 -0.25344 -73.4254 -19.3384 12.1835 38.868 0.121801 0.228525 53.1526 1.00604e-005 0.000124249 -86.4976 -1.20055e-005 -0.000116294 147.868 5.48825 -9.47584 -0.509622 -21.4191 -8.47337 -16.0017 -3.8519 8.86855 7.18613 1.31019 -21.8858 11.2331 -38.9406 7.39246 53.2313 82.8134 26.3858 16.0765 31.0767 -12.5565 98.3732 -8.83999 -1.81343 83.2582 -7.43699 33.222 -27.3465 -173.375 -50.1253 136.622 0.000385664 -2.51797e-005 5.00955 0.00015645 0.000136304 25.7996 0.000170751 -0.00137202 -0.000153678 100.42 79.0802 -71.7826 0.000157523 -0.000993031 54.6253 0.00164815 0.000110022 51.8875 0.000668616 -0.00321128 -0.0920551 15.4718 85.6674 19.7588 0.000308486 -0.000221549 65.9844 0.000947948 -0.000184837 28.9975 -0.00030869 -0.00273312 -0.0911583 16.1782 83.9647 32.3099 0.000542687 -0.00103971 38.6714 0.00155233 0.000916149 41.1953 -0.000386547 -0.00322547 -0.0906331 20.9215 81.3853 5.33334 0.00151465 -0.000522221 45.7782 0.000407301 0.00010695 33.0154 0.0012735 -0.0026198 -0.091848 -79.0587 -17.767 -45.8057 -27.5688 14.9261 44.9042 42.8329 17.8669 30.1732 167.793 15.0319 -153.282 142.213 51.8016 169.894 -0.000118133 -1.88019e-005 16.9256 0.00017431 9.2503e-005 25.092 -0.00170899 -0.00482178 -180 -95.0306 -68.1708 -102.331 -0.000255162 7.70306e-005 49.7582 0.0001537 -8.70524e-005 51.2142 4.57764e-005 -0.000320435 180 -105.984 -79.9219 -76.0647 -0.000106398 -7.07644e-005 65.9844 -0.000169522 0.000213544 58.5702 3.05176e-005 6.10352e-005 180 -16.1788 -83.9648 34.4446 -1.19594e-005 0.000109375 55.5556 -0.000125043 -0.000143852 57.7158 0.000106812 -0.00012207 -180 13.4556 -78.0187 70.4018 -0.000193038 0.000159878 51.2478 -7.97525e-005 9.33013e-005 49.361 6.10352e-005 -6.10352e-005 -180 
0 0 0 -90 -7.01671e-015 -180 146.308 1.50419 120.89 -151.446 39.7164 -30.4369 -0.602174 -0.16459 -76.0595 6.06279 -3.48485 52.0254 -2.46925 2.94696 67.2172 -2.71935e-005 -7.75572e-005 -86.4976 160.636 -10.7556 12.8739 -0.892039 -0.334146 -68.5184 -17.9713 13.6858 37.4456 0.0965099 0.248663 53.973 1.02479e-005 0.000132225 -86.4976 -2.97518e-006 -7.74932e-005 147.826 4.68327 -9.54528 -0.653914 -22.1543 -8.50784 -16.1969 -4.66909 10.8651 7.19105 -0.311996 -25.2263 6.97914 -39.0982 5.88578 54.9407 82.3969 26.5568 18.6948 30.0345 -14.4964 96.4481 -9.47827 -4.32523 86.1709 -4.42766 33.2577 -28.7481 -173.375 -50.1253 136.622 0.000385553 -3.00194e-005 5.00954 0.00015316 0.000132301 25.7996 0.000170751 -0.00137443 -0.000153677 100.42 79.0802 -71.7826 0.000157949 -0.00103096 54.6253 0.00164919 0.000102847 51.8875 0.00061573 -0.00309383 -0.0936935 15.4718 85.6674 19.7589 0.000310584 -0.000218179 65.9843 0.000947176 -0.000184429 28.9975 -0.000319745 -0.00262852 -0.0928059 16.1781 83.9647 32.31 0.000543555 -0.00103876 38.6714 0.00155327 0.000914879 41.1953 -0.000399305 -0.00311057 -0.0922775 20.9214 81.3853 5.33339 0.00151438 -0.000522474 45.7782 0.000405107 0.000245333 33.0154 0.00121634 -0.00251094 -0.0934844 -79.9793 -17.1334 -49.1845 -29.1649 14.3008 45.6211 41.5413 24.3723 33.176 165.322 20.4252 -150.363 142.213 51.8016 169.894 -0.00011975 -0.000124897 16.9256 0.00017952 9.36992e-005 25.0577 -0.00166321 -0.00465393 -180 -95.0301 -68.1708 -102.331 -0.000255618 5.60284e-005 49.7582 0.000158291 -8.17743e-005 51.1852 4.57764e-005 -0.000366211 180 -105.984 -79.9219 -76.065 -0.000106101 -0.000160148 65.9844 -0.000167027 0.000174837 58.5702 3.05176e-005 6.10352e-005 180 -16.1791 -83.9649 34.4444 -9.27743e-006 8.44193e-005 55.5556 -0.000125229 -0.000235796 57.7158 0.000106812 -0.000228882 -180 13.4556 -78.0188 70.4019 -0.000193636 0.000297847 51.2478 -6.59145e-005 0.000101872 49.3611 6.10353e-005 -0.000167847 -180 
0 0 0 -90 -7.01671e-015 -180 146.424 0.624138 122.547 -155.101 39.7352 -29.6094 -0.563301 -0.206481 -71.6619 4.7692 -1.84709 51.9474 -2.50214 3.12553 66.2281 -2.75568e-005 -0.000123257 -86.4976 160.843 -10.5463 11.7994 -0.865166 -0.397664 -64.3053 -16.4276 14.5856 36.6605 0.06833 0.268902 55.194 1.0422e-005 0.000128101 -86.4976 -0.000138363 -0.000272319 148.194 4.02739 -9.66835 -0.384723 -22.7781 -8.49306 -16.3335 -4.98418 11.8925 6.74646 -1.9041 -27.1935 3.50583 -39.0114 4.67033 56.3878 81.8131 26.6181 20.0134 29.3139 -15.2196 94.0479 -9.6414 -7.1195 89.0663 -1.85256 33.7298 -29.6398 -173.375 -50.1253 136.622 0.000385527 -3.68594e-005 5.00954 0.00015317 0.000126878 25.7996 0.000170751 -0.00137685 -0.000153677 100.42 79.0802 -71.7826 0.000157651 -0.0011091 54.6253 0.00165016 8.51798e-005 51.8875 0.000561998 -0.00297595 -0.0953313 15.4718 85.6674 19.7589 0.000310317 -0.000218101 65.9843 0.000946747 -0.000184151 28.9975 -0.000327378 -0.00252179 -0.0944527 16.178 83.9647 32.3101 0.000542757 -0.0010387 38.6714 0.00155416 0.000913473 41.1953 -0.000407794 -0.00299781 -0.0939216 20.9214 81.3853 5.33341 0.00151424 -0.000526548 45.7781 0.000404001 0.00024702 33.0153 0.00115792 -0.00239994 -0.0951235 -80.9026 -16.7226 -51.4961 -30.4301 13.3946 46.462 40.1836 30.0839 36.9293 162.576 24.8472 -146.731 142.213 51.8017 169.894 -0.000120541 8.92271e-005 16.9256 0.000176495 9.48626e-005 25.0233 -0.00160218 -0.00448609 -180 -95.0302 -68.1708 -102.331 -0.00025338 2.44171e-005 49.7581 0.000152056 -8.92393e-005 51.1561 4.57764e-005 -0.000457764 180 -105.983 -79.9219 -76.0643 -0.000109965 1.7344e-005 65.9844 -0.000169937 8.79633e-005 58.5702 3.05176e-005 4.57764e-005 180 -16.1787 -83.9647 34.4447 -1.37787e-005 2.22091e-005 55.5556 -0.000128331 -5.48778e-005 57.7158 0.000106812 -3.05176e-005 -180 13.4557 -78.0188 70.402 -0.000195842 0.000289596 51.2478 -9.20224e-005 5.84502e-005 49.3611 6.10353e-005 3.05176e-005 180 
0 0 0 -90 -7.01671e-015 -180 146.513 -0.218441 124.032 -158.684 39.5488 -28.8167 -0.512847 -0.240624 -67.5453 3.6002 0.0231294 51.7438 -2.54772 3.29552 65.5306 -2.79364e-005 -0.000213771 -86.4976 161.062 -10.2463 10.7535 -0.843825 -0.457819 -60.4516 -15.5769 15.4424 36.1056 0.0415971 0.288095 55.8775 1.04867e-005 0.000121112 -86.4976 0.00011689 9.10436e-005 148.471 3.26688 -9.67577 -0.582746 -23.4718 -8.35235 -16.4719 -5.25609 12.7875 6.41011 -3.51073 -29.1101 0.445749 -38.6851 3.66793 57.518 81.422 26.6919 21.4703 28.8366 -15.4648 91.1836 -9.02173 -9.4456 92.0308 0.0980133 34.6319 -30.0098 -173.375 -50.1254 136.622 0.0003855 -5.05256e-005 5.00955 0.000153519 0.000114698 25.7996 0.000170751 -0.00138168 -0.000153677 100.42 79.0802 -71.7826 0.000157476 -0.000955573 54.6253 0.00165145 5.52489e-005 51.8875 0.00050912 -0.00285828 -0.0969678 15.4717 85.6673 19.759 0.000309405 -0.00021856 65.9843 0.000946399 -0.000184107 28.9975 -0.000337569 -0.00241718 -0.0960997 16.1778 83.9646 32.3103 0.000541966 -0.00103837 38.6714 0.00155482 0.000911359 41.1953 -0.000417986 -0.00288504 -0.0955658 20.9213 81.3852 5.33355 0.00151385 -0.000533442 45.7782 0.000402332 0.000245522 33.0154 0.00110121 -0.00229065 -0.0967625 -81.4319 -16.3269 -53.543 -31.3694 12.0465 46.9361 39.0029 35.0627 41.0652 159.501 28.3768 -142.701 142.213 51.8017 169.894 -0.00012054 9.0472e-005 16.9256 0.00017528 9.5544e-005 24.989 -0.00154114 -0.00431824 -180 -95.0303 -68.1708 -102.331 -0.000253662 -3.83638e-005 49.7582 0.000153514 -8.78534e-005 51.1193 4.57764e-005 -0.000274658 180 -105.983 -79.9219 -76.0644 -0.000108149 7.24885e-006 65.9844 -0.000173501 0.000257566 58.5702 3.05176e-005 4.57764e-005 180 -16.1787 -83.9647 34.4447 -2.2191e-005 0.000144284 55.5556 -0.000127427 -5.48363e-005 57.7158 0.000106812 -3.05176e-005 -180 13.4555 -78.0187 70.4018 -0.000195823 0.000275955 51.2478 -8.81364e-005 3.63492e-005 49.3611 6.10353e-005 3.05176e-005 180 
